<?xml version="1.0" encoding="UTF-8"?>
<svg id="Camada_2" data-name="Camada 2" xmlns="http://www.w3.org/2000/svg" viewBox="0 0 400 400">
  <defs>
    <style>
      .cls-1 {
        fill: #fff;
      }
    </style>
  </defs>
  <g id="Camada_2-2" data-name="Camada 2">
    <g>
      <circle class="cls-1" cx="200" cy="200" r="60"/>
      <g>
        <path class="cls-1" d="m292.5,284.08c-22.86,25.14-55.84,40.92-92.5,40.92-69.04,0-125-55.96-125-125s55.96-125,125-125c36.66,0,69.64,15.78,92.5,40.92,17.16-18.87,40.03-32.46,65.86-38.07C321.79,30.5,264.46,0,200,0,89.54,0,0,89.54,0,200s89.54,200,200,200c64.46,0,121.79-30.5,158.36-77.85-25.84-5.61-48.7-19.2-65.86-38.07Z"/>
        <path class="cls-1" d="m325,200c0,33.14,26.86,60,60,60,2,0,3.98-.1,5.93-.29,5.89-18.86,9.07-38.91,9.07-59.71s-3.18-40.85-9.07-59.71c-1.95-.19-3.93-.29-5.93-.29-33.14,0-60,26.86-60,60Z"/>
      </g>
    </g>
  </g>
</svg>